<svg xmlns="http://www.w3.org/2000/svg" viewBox="0 0 621.12 440.24">
    <defs>
        <style>
        .cls-blue{fill:#0095ff;}
        .cls-white{fill:#fff;}
        .cls-1{
        fill:#fffff00;
            animation: appear1 2.5s ease-in-out 0s infinite normal both running;
        }
        .cls-2{
        fill:#fffff00;
            animation: appear1 2.5s ease-in-out 0.8333s infinite normal both running;
        }
        .cls-3{
        fill:#fffff00;
            animation: appear1 2.5s ease-in-out 1.6666s infinite normal both running;
        }
        @keyframes appear1 {
            0% {
                fill: #ffffff00;
            }
            12.5% {
                fill: #ffffffff;
            }
            75%, 100% {
                fill: #ffffff00;
            }
        }
        </style>
    </defs>
    <title>logo</title>
    <g id="Layer_2" data-name="Layer 2">
        <g id="Logo_copy_2" data-name="Logo copy 2">
            <path id="Shape_1_copy_4" data-name="Shape 1 copy 4" class="cls-blue" d="M621.12,179.2C621,80.41,481.88.18,310.38,0S-.1,79.75,0,178.53C.09,263.06,102,334,238.89,352.78c-11.11,31.61-29.65,68.87-58.79,87.46,56.19.14,111.55-43.91,149.48-82.85C492.32,352,621.22,274.33,621.12,179.2Z"/>
            <path id="WP_Social_Proof" data-name="WP Social Proof" class="cls-white" d="M104.61,202.77,96.94,172h-.12l-7.54,30.79H79.2l-12-45.24h9.95l7.16,30.79h.12l7.86-30.79h9.31l7.73,31.17h.13l7.41-31.17h9.76l-12.17,45.24h-9.88Zm44.29-24a20.72,20.72,0,0,0,3.29-.25,7.61,7.61,0,0,0,2.79-1,5.31,5.31,0,0,0,1.93-2.06,8.68,8.68,0,0,0,0-7,5.32,5.32,0,0,0-1.93-2.06,7.65,7.65,0,0,0-2.79-1,20.84,20.84,0,0,0-3.29-.25h-7.73v13.56h7.73Zm2.72-21.29a18.89,18.89,0,0,1,7.23,1.24,13.49,13.49,0,0,1,4.84,3.26,12.5,12.5,0,0,1,2.73,4.63,17.39,17.39,0,0,1,0,10.74,12.45,12.45,0,0,1-2.73,4.66,13.48,13.48,0,0,1-4.84,3.26,18.91,18.91,0,0,1-7.23,1.23H141.17v16.22h-9.95V157.53h20.4Zm47.08,34.09a7.27,7.27,0,0,0,2.18,2.57,9.49,9.49,0,0,0,3.2,1.46,15.2,15.2,0,0,0,3.81.48,19.92,19.92,0,0,0,2.85-.22,10,10,0,0,0,2.85-.85,6.27,6.27,0,0,0,2.22-1.74,4.37,4.37,0,0,0,.88-2.82,4,4,0,0,0-1.17-3,9.33,9.33,0,0,0-3.07-1.9,31.11,31.11,0,0,0-4.31-1.33c-1.61-.38-3.23-.8-4.88-1.27a42.76,42.76,0,0,1-4.94-1.55,16.92,16.92,0,0,1-4.31-2.38,11.13,11.13,0,0,1-3.07-3.64,11,11,0,0,1-1.18-5.29,11.88,11.88,0,0,1,1.49-6.05,13.53,13.53,0,0,1,3.9-4.28,17,17,0,0,1,5.45-2.53,23.21,23.21,0,0,1,6.08-.82,28.76,28.76,0,0,1,6.81.79,17,17,0,0,1,5.8,2.57,12.94,12.94,0,0,1,4,4.53A13.81,13.81,0,0,1,224.8,171h-9.63a8,8,0,0,0-.85-3.36,5.59,5.59,0,0,0-1.94-2.09,8.17,8.17,0,0,0-2.75-1.08,17.06,17.06,0,0,0-3.39-.32,11.68,11.68,0,0,0-2.41.25,6.54,6.54,0,0,0-2.19.89,5.5,5.5,0,0,0-1.61,1.58,4.27,4.27,0,0,0-.63,2.41,4.05,4.05,0,0,0,.5,2.15,4.56,4.56,0,0,0,2,1.52,25,25,0,0,0,4.12,1.39q2.63.7,6.87,1.77c.85.17,2,.48,3.52.92a16.69,16.69,0,0,1,4.46,2.12,13.55,13.55,0,0,1,3.84,3.9,11.07,11.07,0,0,1,1.61,6.24,13.86,13.86,0,0,1-1.2,5.77,12.54,12.54,0,0,1-3.58,4.59,17.19,17.19,0,0,1-5.89,3,27.89,27.89,0,0,1-8.14,1.08,28.68,28.68,0,0,1-7.26-.92A18.33,18.33,0,0,1,194,200a14.34,14.34,0,0,1-4.28-5,15,15,0,0,1-1.52-7.22h9.63A8.28,8.28,0,0,0,198.7,191.62Zm40.93-1.36a10,10,0,0,0,1.3,3.36,6.84,6.84,0,0,0,2.44,2.38,7.43,7.43,0,0,0,3.8.89A7.59,7.59,0,0,0,251,196a6.77,6.77,0,0,0,2.47-2.38,10.19,10.19,0,0,0,1.3-3.36,19.44,19.44,0,0,0,.38-3.83,19.93,19.93,0,0,0-.38-3.86,9.84,9.84,0,0,0-1.3-3.36,7.13,7.13,0,0,0-2.47-2.38,7.39,7.39,0,0,0-3.83-.92,6.92,6.92,0,0,0-6.24,3.3,9.64,9.64,0,0,0-1.3,3.36,19.17,19.17,0,0,0-.38,3.86,18.71,18.71,0,0,0,.38,3.83Zm-8.18-11a15.45,15.45,0,0,1,3.43-5.45,15.26,15.26,0,0,1,5.32-3.48,18.69,18.69,0,0,1,7-1.24,19,19,0,0,1,7,1.24,14.92,14.92,0,0,1,8.77,8.93,19.94,19.94,0,0,1,1.21,7.13,19.68,19.68,0,0,1-1.21,7.1,15.32,15.32,0,0,1-3.42,5.42,14.9,14.9,0,0,1-5.35,3.45,19.43,19.43,0,0,1-7,1.2,19.15,19.15,0,0,1-7-1.2,14.87,14.87,0,0,1-5.32-3.45,15.48,15.48,0,0,1-3.43-5.42,19.9,19.9,0,0,1-1.2-7.1,20.16,20.16,0,0,1,1.2-7.13Zm54.18-3.39a6.31,6.31,0,0,0-3.61,1,7.71,7.71,0,0,0-2.38,2.53,10.94,10.94,0,0,0-1.3,3.42,18.82,18.82,0,0,0-.38,3.71,18,18,0,0,0,.38,3.61,11.08,11.08,0,0,0,1.24,3.33,7.1,7.1,0,0,0,2.31,2.44,6.35,6.35,0,0,0,3.55,1,6.59,6.59,0,0,0,5-1.81,8.58,8.58,0,0,0,2.19-4.85h8.68q-.88,6.53-5.07,9.95a16.37,16.37,0,0,1-10.71,3.42,18,18,0,0,1-6.75-1.23,14.86,14.86,0,0,1-5.22-3.45,15.64,15.64,0,0,1-3.36-5.29,18.19,18.19,0,0,1-1.21-6.75,21.81,21.81,0,0,1,1.11-7.07,15.87,15.87,0,0,1,3.27-5.64,14.84,14.84,0,0,1,5.25-3.71,17.89,17.89,0,0,1,7.1-1.33,20.59,20.59,0,0,1,5.61.76,15,15,0,0,1,4.81,2.31,11.94,11.94,0,0,1,5,9.35h-8.81q-.88-5.64-6.65-5.64h0Zm21-11v-7.41h9v7.41Zm9,5.07v32.76h-9V170h9Zm15.71,10.08a5.11,5.11,0,0,1,1.77-3.8,6.85,6.85,0,0,1,4.18-1.14,15,15,0,0,1,2.25.16,5,5,0,0,1,1.84.63,3.5,3.5,0,0,1,1.27,1.33,4.74,4.74,0,0,1,.47,2.31,2.41,2.41,0,0,1-.82,2.12,6,6,0,0,1-2.41,1.11,23.66,23.66,0,0,1-3.48.57q-2,.19-4,.51a37.73,37.73,0,0,0-4,.86,11.45,11.45,0,0,0-3.55,1.61,8.21,8.21,0,0,0-2.53,2.88,9.5,9.5,0,0,0-1,4.59,10.29,10.29,0,0,0,.85,4.37,8.3,8.3,0,0,0,2.38,3,10,10,0,0,0,3.55,1.77,16.09,16.09,0,0,0,4.37.57,20.41,20.41,0,0,0,6-.89,11.66,11.66,0,0,0,5.06-3.1,14.16,14.16,0,0,0,.23,1.62,11.68,11.68,0,0,0,.41,1.55h9.12a7.71,7.71,0,0,1-.89-3,36.06,36.06,0,0,1-.25-4.24v-17a7.86,7.86,0,0,0-1.33-4.78,9.16,9.16,0,0,0-3.42-2.82,15.32,15.32,0,0,0-4.63-1.36,36.66,36.66,0,0,0-5-.35,27.67,27.67,0,0,0-5.42.54,15.56,15.56,0,0,0-4.85,1.81,10.73,10.73,0,0,0-3.54,3.36,10.48,10.48,0,0,0-1.59,5.26h9Zm11.78,10a18.15,18.15,0,0,1-.15,2,7,7,0,0,1-.86,2.5,6,6,0,0,1-2.15,2.12,8,8,0,0,1-4.12.89,11.23,11.23,0,0,1-2.09-.19,5.08,5.08,0,0,1-1.78-.66,3.4,3.4,0,0,1-1.2-1.3,4.18,4.18,0,0,1-.44-2,4.33,4.33,0,0,1,.44-2.09,4,4,0,0,1,1.17-1.36,6.06,6.06,0,0,1,1.71-.85,16.45,16.45,0,0,1,2-.51c.72-.13,1.43-.23,2.15-.32s1.41-.19,2.06-.32a14.42,14.42,0,0,0,1.84-.48,4,4,0,0,0,1.42-.79v3.36Zm25.22-32.57v45.24h-9V157.53h9Zm43.34,21.29a20.72,20.72,0,0,0,3.29-.25,7.61,7.61,0,0,0,2.79-1,5.31,5.31,0,0,0,1.93-2.06,8.68,8.68,0,0,0,0-7,5.32,5.32,0,0,0-1.93-2.06,7.65,7.65,0,0,0-2.79-1,20.84,20.84,0,0,0-3.29-.25h-7.73v13.56h7.73Zm2.72-21.29a18.89,18.89,0,0,1,7.23,1.24,13.49,13.49,0,0,1,4.84,3.26,12.5,12.5,0,0,1,2.73,4.63,17.39,17.39,0,0,1,0,10.74,12.45,12.45,0,0,1-2.73,4.66,13.48,13.48,0,0,1-4.84,3.26,18.91,18.91,0,0,1-7.23,1.23H403.92v16.22H394V157.53h20.4ZM443.83,170v6.08H444a11,11,0,0,1,1.71-2.82,11.26,11.26,0,0,1,2.47-2.22,12.09,12.09,0,0,1,3-1.43,10.83,10.83,0,0,1,3.3-.51,7,7,0,0,1,2,.32v8.36c-.42-.08-.93-.16-1.52-.22a16.12,16.12,0,0,0-1.71-.1,9.57,9.57,0,0,0-4.18.82,7.27,7.27,0,0,0-2.76,2.25,9,9,0,0,0-1.49,3.33,18.44,18.44,0,0,0-.44,4.12v14.76h-9V170h8.55Zm23.32,20.24a10.19,10.19,0,0,0,1.3,3.36,6.92,6.92,0,0,0,2.44,2.38,7.43,7.43,0,0,0,3.8.89,7.59,7.59,0,0,0,3.83-.89,6.88,6.88,0,0,0,2.48-2.38,10.17,10.17,0,0,0,1.29-3.36,18.71,18.71,0,0,0,.38-3.83,19.18,19.18,0,0,0-.38-3.86A9.83,9.83,0,0,0,481,179.2a7.25,7.25,0,0,0-2.48-2.38,7.39,7.39,0,0,0-3.83-.92,6.92,6.92,0,0,0-6.24,3.3,9.84,9.84,0,0,0-1.3,3.36,19.93,19.93,0,0,0-.38,3.86,19.44,19.44,0,0,0,.38,3.83Zm-8.17-11a15,15,0,0,1,8.74-8.93,18.69,18.69,0,0,1,7-1.24,18.93,18.93,0,0,1,7,1.24,14.9,14.9,0,0,1,8.78,8.93,20.17,20.17,0,0,1,1.2,7.13,19.9,19.9,0,0,1-1.2,7.1,15.46,15.46,0,0,1-3.42,5.42,14.94,14.94,0,0,1-5.36,3.45,19.39,19.39,0,0,1-7,1.2,19.15,19.15,0,0,1-7-1.2,15,15,0,0,1-5.32-3.45,15.32,15.32,0,0,1-3.42-5.42,19.9,19.9,0,0,1-1.21-7.1,20.16,20.16,0,0,1,1.21-7.13Zm46.88,11a10.41,10.41,0,0,0,1.3,3.36A6.92,6.92,0,0,0,509.6,196a7.45,7.45,0,0,0,3.8.89,7.66,7.66,0,0,0,3.84-.89,6.85,6.85,0,0,0,2.47-2.38,10.41,10.41,0,0,0,1.3-3.36,19.45,19.45,0,0,0,.38-3.83,19.93,19.93,0,0,0-.38-3.86,10,10,0,0,0-1.3-3.36,7.21,7.21,0,0,0-2.47-2.38,7.46,7.46,0,0,0-3.84-.92,6.92,6.92,0,0,0-6.24,3.3,10,10,0,0,0-1.3,3.36,19.93,19.93,0,0,0-.38,3.86,19.45,19.45,0,0,0,.38,3.83Zm-8.17-11a15,15,0,0,1,8.74-8.93,18.73,18.73,0,0,1,7-1.24,19,19,0,0,1,7,1.24,14.92,14.92,0,0,1,8.77,8.93,20.17,20.17,0,0,1,1.2,7.13,19.9,19.9,0,0,1-1.2,7.1,15.32,15.32,0,0,1-3.42,5.42,14.9,14.9,0,0,1-5.35,3.45,19.48,19.48,0,0,1-7,1.2,19.19,19.19,0,0,1-7-1.2,15,15,0,0,1-5.32-3.45,15.32,15.32,0,0,1-3.42-5.42,19.9,19.9,0,0,1-1.2-7.1,20.16,20.16,0,0,1,1.2-7.13Zm35.1-3.26v-6h5.39v-2.53a9.8,9.8,0,0,1,2.72-7.16c1.82-1.86,4.56-2.79,8.24-2.79.8,0,1.6,0,2.41.1l2.34.16v6.72a27.57,27.57,0,0,0-3.29-.19,3.43,3.43,0,0,0-2.63.86,4.19,4.19,0,0,0-.8,2.88v2h6.21v6h-6.21v26.74h-9V176h-5.39Z"/>
        </g>
        <g id="Layer_2-2" data-name="Layer 2">
            <path class="cls-1" d="M253.43,255.31a7.5,7.5,0,1,0,7.5-7.5A7.5,7.5,0,0,0,253.43,255.31Z"/>
            <path class="cls-2" d="M303.43,255.31a7.5,7.5,0,1,0,7.5-7.5A7.5,7.5,0,0,0,303.43,255.31Z"/>
            <path class="cls-3" d="M353.43,255.31a7.5,7.5,0,1,0,7.5-7.5A7.5,7.5,0,0,0,353.43,255.31Z"/>
        </g>
    </g>
</svg>