<svg xmlns="http://www.w3.org/2000/svg" viewBox="0 0 267.74 269.15">
    <defs>
        <style>
        .anim {
            animation: anim 4s linear 0s infinite normal both running;
            transform-origin: center;
        }
        @keyframes anim {
            0% {
                transform: scale(.25) rotate(0deg);
            }
            50% {
                transform: scale(1) rotate(45deg);
            }
            100% {
                transform: scale(.25) rotate(90deg);
            }
        }
        .cls-1 {
            isolation: isolate;
        }

        .cls-14,
        .cls-2 {
            fill: #ef9926;
        }

        .cls-3 {
            fill: #ffeb97;
        }

        .cls-4 {
            fill: #ea3f3f;
        }

        .cls-12,
        .cls-20,
        .cls-5 {
            fill: #ffae1f;
        }

        .cls-6 {
            fill: #ffd522;
        }

        .cls-7 {
            fill: #e54242;
        }

        .cls-19,
        .cls-8 {
            fill: #ffc91f;
        }

        .cls-9 {
            fill: #ef4b4b;
        }

        .cls-10 {
            fill: #ffe669;
        }

        .cls-11 {
            fill: #cc3232;
        }

        .cls-12 {
            opacity: 0.2;
        }

        .cls-12,
        .cls-14,
        .cls-17 {
            mix-blend-mode: multiply;
        }

        .cls-13 {
            fill: #c13838;
        }

        .cls-14 {
            opacity: 0.17;
        }

        .cls-15 {
            fill: #d33c3c;
        }

        .cls-16,
        .cls-18 {
            fill: #ffe424;
        }

        .cls-17 {
            fill: #ffbb24;
            opacity: 0.18;
        }

        .cls-18 {
            opacity: 0.48;
        }

        .cls-19 {
            opacity: 0.45;
        }

        .cls-20 {
            opacity: 0.51;
        }
        </style>
    </defs>
    <title>cta-animated</title>
    <g class="cls-1">
        <g id="Layer_2" data-name="Layer 2">
            <g id="OBJECTS">
                <path class="anim cls-2" d="M47.43,168.22a10,10,0,1,1,10-10A10,10,0,0,1,47.43,168.22Zm0-17a7,7,0,1,0,7,7A7,7,0,0,0,47.43,151.22Z"/>
                <path class="anim cls-3" d="M264.24,113.16a3.5,3.5,0,1,1,3.5-3.5A3.5,3.5,0,0,1,264.24,113.16Zm0-6a2.5,2.5,0,1,0,2.5,2.5A2.5,2.5,0,0,0,264.24,107.16Z"/>
                <path class="anim cls-4" d="M81.48,205.14a4.1,4.1,0,1,1,4.1-4.1A4.1,4.1,0,0,1,81.48,205.14Zm0-7a2.9,2.9,0,1,0,2.9,2.9A2.9,2.9,0,0,0,81.48,198.14Z"/>
                <circle class="anim cls-5" cx="225.86" cy="150.42" r="4.5"/>
                <circle class="anim cls-5" cx="23.32" cy="84.61" r="3.5"/>
                <circle class="anim cls-6" cx="204.03" cy="56.04" r="4"/>
                <circle class="anim cls-6" cx="161.72" cy="222.58" r="4"/>
                <circle class="anim cls-6" cx="242.9" cy="203.64" r="3"/>
                <circle class="anim cls-7" cx="47.43" cy="114.52" r="4.5"/>
                <circle class="anim cls-7" cx="164.77" cy="56.04" r="1.5"/>
                <circle class="anim cls-7" cx="69.95" cy="226.99" r="1.5"/>
                <circle class="anim cls-7" cx="190.81" cy="196.05" r="1.5"/>
                <circle class="anim cls-5" cx="195.94" cy="143.69" r="1.5"/>
                <circle class="anim cls-8" cx="80.91" cy="64.98" r="1.5"/>
                <circle class="anim cls-9" cx="138.77" cy="54.54" r="2.5"/>
                <circle class="anim cls-9" cx="263.87" cy="162.48" r="2.5"/>
                <circle class="anim cls-7" cx="213.53" cy="131.56" r="2.5"/>
                <polygon class="anim cls-5" points="212.86 236.22 202.65 225.53 192.24 231.2 190.81 228.56 203.23 221.8 212.99 232.01 229.2 216.94 231.24 219.14 212.86 236.22"/>
                <polygon class="anim cls-9" points="216.67 107.11 215.35 92.31 230.09 92.28 225.56 76.32 242.49 75.34 237.88 63.56 241.6 62.1 248.22 79.02 230.77 80.02 235.38 96.28 219.73 96.3 220.66 106.76 216.67 107.11"/>
                <polygon class="anim cls-5" points="59.53 76.5 56.68 75.58 61.69 60.08 47.98 54.04 53.79 39.52 37.43 35.48 38.15 32.57 57.86 37.43 51.84 52.46 65.38 58.42 59.53 76.5"/>
                <polygon class="anim cls-10" points="93.01 248.02 84.72 230.58 74.43 245.61 71.13 243.35 85.35 222.58 94.08 240.94 103.26 230.96 111.63 244.86 108.2 246.92 102.59 237.6 93.01 248.02"/>
                <path class="anim cls-5" d="M6.35,153.09c-8.78-5.82-5.94-17.8-5.82-18.31l2.91.72c0,.1-2.44,10.45,4.56,15.09Z"/>
                <path class="anim cls-5" d="M245.49,135.88l-2.59-1.51c5.31-9.1,17.44-6.94,17.95-6.85l-.55,2.95C260.19,130.45,249.73,128.62,245.49,135.88Z"/>
                <path class="anim cls-5" d="M32.14,208.76l-2.81-1a15.26,15.26,0,0,1,16.2-9.08l-.32,3C35.31,200.56,32.17,208.68,32.14,208.76Z"/>
                <path class="anim cls-11" d="M139.47,269.15,136.68,268c1.26-3.13,1.38-5.84.34-8.06a9.64,9.64,0,0,0-5.22-4.57l.93-2.85a12.69,12.69,0,0,1,7,6.16C141.15,261.7,141.05,265.22,139.47,269.15Z"/>
                <path class="anim cls-11" d="M98.89,21.93,97.44,19.3c2.95-1.62,4.75-3.64,5.36-6a9.77,9.77,0,0,0-1.15-6.87l2.53-1.62a12.69,12.69,0,0,1,1.54,9.2C104.9,17.22,102.6,19.89,98.89,21.93Z"/>
                <path class="anim cls-9" d="M216.4,172.19c-12.79-2.42-15.85-14.13-16-14.63l2.91-.72-1.46.36,1.46-.37c.11.42,2.75,10.36,13.62,12.41Z"/>
                <path class="anim cls-5" d="M147.08,30.27c-1.68,1.14,17.38-1.47,25.84-24.16.7-1.87-8-8-10.11-5.51S166.8,16.92,147.08,30.27Z"/>
                <path class="cls-7" d="M77.55,110.8S77.62,170,79,172.14s49.86,24.43,51.62,23.9l-.3-63.29Z"/>
                <path class="cls-5" d="M95.94,181s4.27,6.43,13.71,6.43V127.77l-13.71-6.25Z"/>
                <path class="cls-12" d="M109.65,137.74v-10l-13.71-6.25v12.31C100.47,135.32,105,136.65,109.65,137.74Z"/>
                <path class="cls-13" d="M129.79,133l.79,63s47.09-22.84,47.54-25.25,1.69-62.36,1.69-62.36Z"/>
                <path class="cls-2" d="M152,185.46s8.28-1,12.41-6.39l1.43-59.17-14.05,4.28Z"/>
                <path class="cls-14" d="M165.39,136.95l.41-17.05-14.05,4.28.06,17.68C156.38,140.32,160.92,138.72,165.39,136.95Z"/>
                <path class="cls-9" d="M72.86,102.48s-.4,13.41.12,15.21,58.63,25.76,59.9,26.25c0,0-.37-16.26-.39-16.9S72.86,102.48,72.86,102.48Z"/>
                <path class="cls-15" d="M132.49,127l.39,16.9s49.7-20.19,50.43-22.62c.36-1.21,1.48-16.46-.38-16.41Z"/>
                <path class="cls-7" d="M132.49,127l50.44-22.13s-53-20.41-55.48-20.35-54.59,17.93-54.59,17.93Z"/>
                <path class="cls-5" d="M97.64,94.07,156,116.73l1.1,17.12s7.71.82,11.62-5.05l-1-17.22L108.89,90.31S100.67,90.37,97.64,94.07Z"/>
                <path class="cls-8" d="M146,90.93s8.27-.11,12.35,4.62l-50.9,21.19-.23,16.52S95.94,132,92.63,127l.43-16.24Z"/>
                <path class="cls-16" d="M166.55,71.6c-21.13-22.54-40.33,26.16-35.7,30.88C137.15,108.91,188.9,95.44,166.55,71.6Zm-34.29,29.67c-.83-1.12,16.42-43,29.79-25.45C177.64,96.31,133.56,103,132.26,101.26Z"/>
                <path class="cls-17" d="M168.82,74.34c0,.45-.1.9-.16,1.35a34.5,34.5,0,0,1-3.45,10.16,10.07,10.07,0,0,1-1.9,4.12,2.63,2.63,0,0,1-.87,1c-6.86,7.46-23.72,10.59-28.76,10.52a30,30,0,0,1-3.24.28,2,2,0,0,0,.4.67C136.9,108.66,184.92,96.46,168.82,74.34Z"/>
                <path class="cls-16" d="M131,100.84c3.22-1.42,3.38-29.25-11.51-22.31C103.73,85.88,126.61,102.77,131,100.84ZM120.87,81.5c10.07-6,10.3,18.07,9.67,18.46C129.55,100.57,109.11,88.54,120.87,81.5Z"/>
                <path class="cls-17" d="M117.82,79.44c-.07.23-.13.46-.19.7a18.35,18.35,0,0,0-.31,5.7,5.35,5.35,0,0,0,.12,2.41,1.4,1.4,0,0,0,.22.68c1.91,5,9.61,9.92,12.11,10.88a16,16,0,0,0,1.54.78,1,1,0,0,1-.33.25C126.78,102.69,105.49,87.17,117.82,79.44Z"/>
                <path class="cls-16" d="M131.17,102.38C135.8,97.66,116.6,49,95.47,71.5,73.11,95.34,124.87,108.81,131.17,102.38ZM100,75.72c13.36-17.57,30.62,24.33,29.79,25.45C128.45,102.92,84.37,96.21,100,75.72Z"/>
                <path class="cls-17" d="M93.19,74.24c0,.45.1.9.16,1.35A34.5,34.5,0,0,0,96.8,85.75a10.07,10.07,0,0,0,1.9,4.12,2.63,2.63,0,0,0,.87,1c6.86,7.46,23.72,10.59,28.76,10.52a30,30,0,0,0,3.24.28,2,2,0,0,1-.4.67C125.11,108.56,77.09,96.36,93.19,74.24Z"/>
                <path class="cls-16" d="M144.24,88.54c-9-7.45-13.91,11.8-11.94,13.35C135,104,153.81,96.43,144.24,88.54Zm-11.46,12.83c-.37-.38,4.09-17,10-11C149.62,97.31,133.36,102,132.78,101.37Z"/>
                <path class="cls-17" d="M145.23,89.47c0,.17,0,.34,0,.52a13.09,13.09,0,0,1-.8,4,3.82,3.82,0,0,1-.52,1.64,1,1,0,0,1-.28.43c-2.22,3.14-8.41,5.14-10.31,5.35a11.37,11.37,0,0,1-1.2.26.74.74,0,0,0,.18.23C134.89,103.93,152.36,97,145.23,89.47Z"/>
                <path class="cls-18" d="M101.76,112.23a68.66,68.66,0,0,1,11.67-4.39,1.5,1.5,0,0,0-.8-2.89,73,73,0,0,0-12.39,4.69c-1.74.84-.22,3.43,1.51,2.59Z"/>
                <path class="cls-18" d="M96.07,115.84l-.47,6.39c-.14,1.93,2.86,1.92,3,0l.47-6.39c.14-1.93-2.86-1.92-3,0Z"/>
                <path class="cls-19" d="M146.53,109,160,113.55c1.83.61,2.62-2.28.8-2.89l-13.49-4.52c-1.83-.61-2.62,2.28-.8,2.89Z"/>
                <path class="cls-19" d="M162.77,116q.07,3.19-.11,6.38c-.11,1.93,2.89,1.92,3,0q.19-3.19.11-6.38c0-1.93-3-1.93-3,0Z"/>
                <path class="cls-19" d="M98.67,164.87l.07,7.56a1.5,1.5,0,0,0,3,0l-.07-7.56a1.5,1.5,0,0,0-3,0Z"/>
                <path class="cls-19" d="M98.68,147.34l.11,12.37a1.5,1.5,0,0,0,3,0l-.11-12.37a1.5,1.5,0,0,0-3,0Z"/>
                <path class="cls-20" d="M160.18,141.92q-.22,8.92-.16,17.84a1.5,1.5,0,0,0,3,0q-.05-8.92.16-17.84c0-1.93-3-1.93-3,0Z"/>
                <path class="cls-20" d="M160.09,165.42a37.51,37.51,0,0,0,.18,7.84c.24,1.89,3.24,1.91,3,0a37.51,37.51,0,0,1-.18-7.84c.16-1.92-2.84-1.91-3,0Z"/>
                <path class="cls-9" d="M83.56,104.18q5.87-1.77,11.62-3.89c1.8-.66,1-3.56-.8-2.89q-5.75,2.11-11.62,3.89c-1.84.56-1.06,3.45.8,2.89Z"/>
                <path class="cls-9" d="M80.18,127.47q-.34,10.69,0,21.38c.05,1.93,3.05,1.93,3,0q-.29-10.69,0-21.38c.06-1.93-2.94-1.93-3,0Z"/>
                <path class="cls-9" d="M80.33,153.85q-.11,3.63,0,7.25c0,1.93,3,1.93,3,0q-.07-3.63,0-7.25c.06-1.93-2.94-1.93-3,0Z"/>
            </g>
        </g>
    </g>
</svg>