<svg xmlns="http://www.w3.org/2000/svg" 
    xmlns:xlink="http://www.w3.org/1999/xlink" viewBox="0 0 405.34 597.56">
    <defs>
        <style type="text/css">
        .cls-1 {
            fill: url(#linear-gradient);
            animation: fade 5s linear 1.25s infinite alternate backwards running;
        }
        .cls-2 {
            fill: url(#linear-gradient-2);
            animation: fade 2.5s linear 0s infinite alternate backwards running;
        }
        .cls-3 {
            fill: url(#linear-gradient-3);
            animation: fadeup 2s linear .5s infinite normal backwards running;
        }
        .cls-4 {
            fill: url(#linear-gradient-4);
            animation: fadeup 2s linear 0s infinite normal backwards running;
        } 
        @keyframes fadeup {
            0% {
                transform: translate(0%, 0%);
                opaticy: 0;
            }
            25% {
                transform: translate(0px, -25%);
                opacity: 0;
            }
            100% {
                transform: translate(0px, -100%);
                opacity: 0;
            }
        }
        @keyframes fade {
            0% {
                fill: #ff0000ff;
            }
            100% {
                fill: #ff000088;
            }
        }
        </style>
        <linearGradient id="linear-gradient" y1="298.78" x2="326.4" y2="298.78" gradientUnits="userSpaceOnUse">
            <stop offset="0.42" stop-color="#ff1700"/>
            <stop offset="0.55" stop-color="#ff4300"/>
            <stop offset="0.76" stop-color="#ff8600"/>
            <stop offset="0.92" stop-color="#ffb100"/>
            <stop offset="1" stop-color="#ffc100"/>
        </linearGradient>
        <linearGradient id="linear-gradient-2" x1="230.19" y1="409.86" x2="405.34" y2="409.86" xlink:href="#linear-gradient"/>
        <linearGradient id="linear-gradient-3" x1="203.97" y1="754.41" x2="200.92" y2="57.27" xlink:href="#linear-gradient"/>
        <linearGradient id="linear-gradient-4" x1="189.72" y1="296.03" x2="205.56" y2="620.77" gradientUnits="userSpaceOnUse">
            <stop offset="0.02" stop-color="#ffce00"/>
            <stop offset="0.27" stop-color="#ffb500"/>
            <stop offset="0.37" stop-color="#ffae00"/>
            <stop offset="0.53" stop-color="#f90"/>
            <stop offset="0.71" stop-color="#ff7800"/>
            <stop offset="0.93" stop-color="#ff4a00"/>
            <stop offset="1" stop-color="#ff3800"/>
        </linearGradient>
    </defs>
    <title>Asset 1</title>
    <g id="Layer_2" data-name="Layer 2">
        <g id="Layer_1-2" data-name="Layer 1">
            <path class="cls-1" d="M67.41,247.88c111.2-110.32,127.42-203,90-247.88,0,0,283,116.33,116.56,386.12-28.5,45.81-99.67,99.93-62.46,211.45C211.47,597.56-144.68,497.84,67.41,247.88Z"/>
            <path class="cls-2" d="M239.31,592.06c-6.08-22.63-33.23-71.92,49.56-170,44.24-52.25,74.52-167,59.77-194.44,0,0,141.3,186.62-22.23,298.39C229.46,592.49,239.31,592.06,239.31,592.06Z"/>
            <path class="cls-3" d="M199.23,592c-29.63.35-72.86-18.44-90-31C56.56,522.12,59,466.48,72.69,409.27c6.87-27.47,22.85-61.59,25.27-84.86,2-19.58-4.77-36-10.5-49.44,6.86,11.44,14.73,21.86,26.18,29.86,22.89,17.16,45,4.39,50.29-20,10.16-46.94-18.6-96.32,3.63-155.15,12.31-32.56,29.92-52.57,64.55-70.46-72.32,69.63-18.53,141,24.76,200.73C308.3,331,365.5,410,330,501.52,311.73,546.15,271,582,217.6,591.91Z"/>
            <path class="cls-4" d="M183.14,433.56c-19.11-2.38-35.24-43-25.09-57.33-13.14,9.38-22.1,27.47-19.7,44.79,2.39,16.72,15.74,28.32,25.08,41.8,9.58,13.83,6.68,32.55-7.77,37-12.72,3.95-21.4-5.23-24-16.42s.75-24.25,7.91-31.36c-16.74,14.34-22.26,35.74-20.15,59.12,3.6,39.85,46.27,71.67,78.08,70.47,47.41,4.48,101.75-63.3,75.85-124.46-9.74-23-30.46-54.09-44.79-73.8-20.31-28.67-34.64-60.91-11.35-92.56-31.65,18.8-52,62.37-52.55,89.58C164.21,399.52,168.8,416.84,183.14,433.56Z"/>
        </g>
    </g>
</svg>