<?xml version="1.0" encoding="utf-8"?>
<!-- Generator: Adobe Illustrator 21.0.2, SVG Export Plug-In . SVG Version: 6.00 Build 0)  -->
<svg version="1.1" id="Layer_1" xmlns="http://www.w3.org/2000/svg" xmlns:xlink="http://www.w3.org/1999/xlink" x="0px" y="0px"
	 viewBox="0 0 500 500" style="enable-background:new 0 0 500 500;" xml:space="preserve">
<style type="text/css">
	.st0{fill:#EFEAE4;}
	.st1{clip-path:url(#SVGID_2_);}
	.st2{fill:#C8E0AE;}
	.st3{fill:#A4C3E5;}
	.st4{fill:#C8B39E;}
	.st5{opacity:0.6;fill:#EFEAE4;enable-background:new    ;}
	.st6{fill:#FFFFFF;}
	.st7{fill:#FFD478;}
	.st8{fill:url(#SVGID_3_);}
	.st9{opacity:0.6;fill:#D1D3D4;enable-background:new    ;}
	.st10{fill:url(#SVGID_4_);}
</style>
<g>
	<g id="Background">
		<rect class="st0" width="500" height="500"/>
	</g>
	<g id="Objects">
		<g>
			<defs>
				<rect id="SVGID_1_" width="500" height="500"/>
			</defs>
			<clipPath id="SVGID_2_">
				<use xlink:href="#SVGID_1_"  style="overflow:visible;"/>
			</clipPath>
			<g class="st1">
				<polygon class="st2" points="223.7,48 374,28.3 359.5,24.8 163.9,24.8 				"/>
				<polygon class="st2" points="174.8,129 254.4,113.2 434.8,234.6 399.5,251.3 303.7,169.5 				"/>
				<path class="st3" d="M-31.3,56.9l17.9-24.2c0,0,100.6-5.9,120.1-2.8c20,3.1,25-0.3,35.3,0s25.6,6.8,17.5,12.1
					c-9.9,6.3-18.8,6.3-34.8,4.3c-15.8-2-23.3-4.2-35.9-0.3C55.7,57-24.5,56.3-31.3,56.9z"/>
				<path class="st3" d="M483.9,188.7c-12.4-5.5-26.6-6.3-34.9-15.5c-8-8.8-11.3-10.3-17.5-13.8s-13.5-0.6-25.5-4.2
					c-16.7-5.4-25-1.2-15.7,11.2c9,13.1,32.3,12.9,37.5,18.4s10.8,31,52.9,17.1C480.6,201.9,495.5,197.2,483.9,188.7z"/>
				<polygon class="st4" points="433.3,317.1 369.8,356.9 330,336.3 404.2,292 				"/>
				<polygon class="st5" points="548.8,499.4 396.3,433.6 420,385.7 380.9,364.6 440.6,325.1 535.5,405.7 				"/>
				<polygon class="st4" points="178.2,237.9 159.3,232.2 167.7,221.2 186.3,226.6 				"/>
				<polygon class="st4" points="150.6,276.5 130.6,269.8 140.4,256.9 160.1,263.2 				"/>
				<polygon class="st4" points="219.2,248.9 199.2,243.2 206.7,231.6 226.2,237 				"/>
				<polygon class="st4" points="207.6,268.9 186.9,262.7 195,250.1 215.2,255.9 				"/>
				<polygon class="st4" points="128.6,243.1 110,237.6 119.6,226.3 137.9,231.5 				"/>
				<polygon class="st4" points="188.8,165.8 170.1,161.7 179.7,150.4 198,155.9 				"/>
				<polygon class="st4" points="446.1,291.1 429.5,277.3 456.1,260.6 471.3,273.4 				"/>
				<polygon class="st4" points="47.8,224.7 33.7,216.4 46,207.3 60,215.2 				"/>
				<polygon class="st4" points="22.6,209.9 8.5,201.6 20.8,192.4 34.8,200.3 				"/>
				<polygon class="st4" points="83.2,167.8 69.8,162.8 101.7,147.4 112.1,150.9 				"/>
				<polygon class="st4" points="195,289.8 173.6,283.1 182.4,269.4 203.3,275.7 				"/>
				<polygon class="st4" points="370.8,52.8 447,41.1 459.2,46.3 510.9,41.5 511.7,49.3 391,61.3 				"/>
				<polygon class="st4" points="360.8,43.9 329.8,48.4 323.9,46.6 354.8,42.1 				"/>
				<polygon class="st4" points="413.6,35.1 382.6,39.7 376.8,37.8 407.7,33.3 				"/>
				<polygon class="st4" points="471.4,24.4 440.4,28.9 434.6,27.1 465.5,22.6 				"/>
				<polygon class="st4" points="305.9,52.3 272.8,57.2 267.2,55.2 300.1,50.5 				"/>
				<polygon class="st4" points="145.1,58.1 174.2,59.7 170.6,62.8 140.6,61 				"/>
				<polygon class="st4" points="97.8,55.5 126.5,57 122.4,60.1 92.9,58.3 				"/>
				<polygon class="st4" points="17,124 81.8,115.1 87.1,125.2 17.5,138.6 				"/>
				<polygon class="st4" points="172.8,101.9 220,92.8 225.8,98.1 176.3,109.2 				"/>
				<polygon class="st4" points="365.4,84.7 381.2,84.3 391.9,92.4 376,92.9 				"/>
				<polygon class="st4" points="301.4,69.3 313,67.5 322.7,74.8 308.3,75.5 				"/>
				<polygon class="st4" points="409.4,83.8 423.6,83.3 435.9,91.4 421.9,92.1 				"/>
				<polygon class="st0" points="165,75 173.6,66.8 99.3,63.7 -3.7,67.6 -5.3,82.1 67.7,88.2 120.7,74.9 				"/>
				<polygon class="st0" points="134.6,200 165.4,170.9 237.8,185.8 250.1,166.1 294.9,177.5 325.5,204.1 264.1,235.6 				"/>
				<polygon class="st5" points="317.1,55.2 512.4,21.9 512,55.2 344.4,71.2 				"/>
				<polygon class="st5" points="285.4,106.6 298.3,102.6 320,105.6 350.4,145.4 				"/>
				<path class="st6" d="M246.3,52.9c1,0,38.2-5.1,106.8-14.5l20.1,5.9l-24,3.9l0,0L248.7,64.7c-1.6,0.2-2.5,1.2-2.1,2.2
					c0.6,0.9,1.7,1.4,2.8,1.3c0.3,0,0.5,0,0.8-0.1l29.4-4.9l18.1,16.1l-58.4,1.8c-1.7,0-3.1,1-3,2.1s1.4,1.9,3,1.9h0.1l143.3-4.5
					l42.6,29.8c1,0.7,2.2,1.1,3.5,1.1c0.6,0,1.1-0.1,1.6-0.4c1.2-0.7,0.9-2.2-0.8-3.3l-40-27.5l36.1-1.1l51.5,35.1
					c1.1,0.8,2.5,1.2,3.9,1.2c0.5,0,1-0.1,1.5-0.3c1.2-0.7,0.7-2.2-1-3.3l-49-32.9l55-1.4c1.6-0.1,2.3-1,1.5-2
					c-1.2-1.2-2.8-1.8-4.4-1.8l-130.4,3.7l-7-4.7l166.5-16c1.5-0.1,1.9-1,1-2c-1.2-1-2.7-1.6-4.3-1.4L389.8,65l-33.5-14.5L514,23.2
					c1.3-0.2,1.5-1,0.6-1.8c-1.1-0.8-2.5-1.2-3.9-1l-131,22.7L360,37.4c11.7-1.6,89.7-15,102.9-16.9c1.3-0.2,1.7-0.9,0.9-1.7
					c-1-0.8-2.4-1.2-3.7-1c-12,1.6-92.5,15.4-108.4,17.5l0,0C304.6,41.8,249.2,49.3,246,49.7c-1.4,0.1-2.5,0.8-2.5,1.6
					S244.7,52.9,246.3,52.9z M304.7,79.1l-19.3-16.8l31.1-5.2L347,77.8L304.7,79.1z M382.6,65.6l-40.5,3.9L322,56.2l28.2-4.7
					L382.6,65.6z"/>
				<path class="st6" d="M547.9,181.5c-2.3-1.7-5.3-2.5-6.7-1.6L514,196.3l-68.6-41.2L491,163c0.3,0.1,0.7,0.1,1,0.1
					c0.7,0.1,1.5-0.2,2-0.7c0.5-0.7,0.5-1.8-0.1-2.5L465.1,114c-1.2-1.5-3-2.4-4.9-2.4h0c-1.9,0-2.7,1.1-1.9,2.4l25.4,42l-18.2-3.1
					L446,125.2c-1-1.3-2.5-2.1-4.1-2.3l-49.2-6.4l0,0L336,109l-11-13.1c-1.2-1.2-2.9-1.6-4.5-1.2c-1.5,0.4-2.1,1.7-1.1,2.8
					l33.1,40.4c0.8,0.9,1.8,1.5,3,1.7l75.4,13l77.3,47.2l-106.5,64.2l-104-88.9c-0.5-0.4-1.1-0.7-1.7-0.9l-155.7-49.4
					c-1.8-0.5-3.8,0.1-5.1,1.5c-1.2,1.4-0.8,2.9,0.9,3.4l26.3,8.5L111,182.1l-19.8-6.4l43.9-26.7c1-0.5,1.7-1.5,1.9-2.6
					c0.1-1-0.5-1.9-1.4-2.2l-28.3-12.1c-1.9-0.6-3.9-0.1-5.3,1.3c-1.4,1.4-1.4,3,0.2,3.7l24.3,10.6l-42,25.1
					c-0.3,0.2-0.5,0.3-0.8,0.5L51,162.8c-1.1-0.3-2.3-0.2-3.4,0.3l-60.2,22.6l9.3-25.8c0.6-1.6-0.8-2.7-3.1-2.3s-4.7,2-5.3,3.7
					L-45.2,249l-0.1,0.1c-0.2,0.4-0.4,0.9-0.5,1.4l-107,280.5c-2.2,5.7-1,9.7,2.5,9.7c0.6,0,1.3-0.1,1.9-0.3
					c4.9-1.5,10.9-8.1,13.2-14.7L-37,253.2l85-9.2c1.6-0.2,3.2-0.9,4.4-2L169,140.4l77.2,24.9l-10.4,16.4L163.6,167
					c-1.7-0.3-3.5,0.3-4.7,1.5L60.5,272.4c-1.3,1.3-2,2.9-2.2,4.7c-0.1,1.4,0.8,2.7,2.1,3.2l131.4,45.1c0.4,0.5,0.8,0.9,1.3,1.2
					c0.7,0.4,1.5,0.6,2.4,0.6c0.4,0,0.8-0.1,1.2-0.2l78.8,27c0.5,0.2,1.1,0.3,1.6,0.3c0.9,0,1.8-0.3,2.5-0.7l33-20.5
					c0.4-0.2,0.7-0.4,1-0.6l30.6-19c0.5-0.2,0.9-0.5,1.3-0.8l57.6-35.7l156.6,137.1c2.2,2,4.5,3,6.3,3c1.5,0.1,2.8-0.8,3.2-2.2
					c1-3.2-1.5-8.7-5.6-12.2L411.1,272.2l138.4-85.9C550.9,185.4,550.2,183.3,547.9,181.5z M456.8,151.4l-42.4-7.2l-15.6-22.1
					l41.8,5.6L456.8,151.4z M385.3,139.3c-5.3-6.9-12.3-16.1-15.7-21.1L391,121l14.9,21.7L385.3,139.3z M340.5,114.3l21.5,2.9
					c2.8,4.7,10,14.5,14.6,20.6l-19-3.2L340.5,114.3z M46.7,169.4l57.2,18.8l-20.4,17.4l-57.5-28L46.7,169.4z M49.1,234.9l-82.8,9
					l18.3-50.9l30.1-11l60.8,30.3L49.1,234.9z M163,174.1l73.7,15.3c1.8,0.4,3.7-0.3,4.7-1.9l12.1-19.7l39.2,12.7l25.7,22.5
					l-55.1,27.9l-95-24.2c-0.4-0.2-0.8-0.3-1.2-0.3l-27.4-7L163,174.1z M155.2,299.5l49.2-74.7L236,233l-41.6,79.6L155.2,299.5z
					 M111.9,285l55.3-69.9l28.5,7.4l-50.2,73.7L111.9,285z M133.3,206.3l25.5,6.6l-56.2,69l-29.9-10L133.3,206.3z M276,339.9
					L204.7,316l40.4-80.7l16.7,4.3l10.5,9.9l-18.2,44c-1.1,2.8-0.2,5.9,2.3,7.6l41.5,25.5L276,339.9z M309.5,319.7l-43.7-26.1
					l14.2-36.6l52,49.1L309.5,319.7z M341.4,300.5L272,236.8l53.5-27.7l68.3,59.8L341.4,300.5z"/>
				<path class="st6" d="M61.4,89.7l71.5,8.3c0.2,0,0.3,0,0.5,0c1.5,0,2.9-0.6,3.9-1.8c0.7-1.2-0.1-2.3-1.8-2.5l-60-6.9l45-10h44
					l0,0l77.4,0.1l0,0c1.7,0,3.1-0.9,3.1-1.9s-1.3-1.9-3-1.9h-71.6L194,51c0.9-0.8,0.5-1.8-0.8-2.2c-1.3-0.4-2.8-0.1-3.9,0.8
					l-17,15.4l-42-1.8l17.3-10.7c1.2-0.7,1.3-1.7,0.2-2.2c-1.3-0.5-2.8-0.4-4,0.4l-20.3,12.3l-23.2-1H100l-29.8,1.2l33.9-13.4
					c1.5-0.6,2.1-1.6,1.5-2.2s-2.3-0.7-3.8-0.2L60.4,63.6l-78.7,3.2c-1.6,0-3.1,0.7-4.2,1.9c-0.7,1,0.2,1.8,1.8,1.7l119-4.9l70.2,3
					l-5,4.6h-42.1l0,0c-0.4,0-0.8,0-1.1,0.1L64,85.5l-97-8.3c-1.8-0.1-3.5,0.6-4.8,1.8c-1.1,1.1-0.6,2.1,1,2.3l81.9,7.1L2.5,110.8
					c-2,1-2.9,2.6-2,3.4c0.5,0.4,1.1,0.6,1.8,0.5c1.2,0,2.3-0.3,3.3-0.9l46.6-25L61.4,89.7z"/>
				<path class="st7" d="M515.4,111.9L298.8,89.2c-1-0.1-2.1-0.1-3.1,0.1l-35.4,6.5L240,83l15.4-11.3c1.1-0.7,1.7-2,1.5-3.2
					c-0.5-1.4-1.6-2.4-3-2.8l-90.2-36.7c-2.3-0.9-3.9-1.5-6.1-0.1s-0.7,1.9,1.6,2.8l81.3,38.2L227,79.2L-9.5,106.5
					c-4.5,0.5-11.7,6.2-13.4,9.1c-1.5,2.7-2.2,7.6,1.5,7.6c0.5,0,1,0,1.6-0.1l247.7-34.9L244.4,99L-43,158.2
					c-5.5,1.2-11.2,5.1-12.7,9c-1.3,3.1-2.5,9.3,1.3,9.3c1,0,2-0.1,3-0.4l308-69l484.2,324.7c5.8,3.8,11,5.8,14.7,5.8
					c4,0,11.3-5.9,10.8-10.2c-0.9-8.1-0.9-20.5-12.5-27.7L273.1,103.8l26.3-5L525.5,128c4.8,0.6,5.5-3.6,3.7-6.8
					S519.9,112.5,515.4,111.9z"/>
				<path class="st6" d="M513.6,511.9c-1.6,0-3.2-0.4-4.7-1.1L-60,275.5c-2.8-1.2-2.8-4.1-0.2-6.4s6.9-3.2,9.6-2.1l564.1,228.5
					c5.6,2.3,6.8,6.4,6.6,11.2C519.9,510.2,517.1,511.9,513.6,511.9z"/>
				<polygon class="st6" points="32.5,306.6 22.9,303.6 42.2,238.2 51.8,241.2 				"/>
				<polygon class="st5" points="-28.9,303.8 340,462 -92,479 				"/>
			</g>
		</g>
		<g>
			
				<linearGradient id="SVGID_3_" gradientUnits="userSpaceOnUse" x1="206.1209" y1="291.3223" x2="299.2936" y2="291.3223" gradientTransform="matrix(1 0 0 -1 0 502)">
				<stop  offset="0" style="stop-color:#AB0634"/>
				<stop  offset="1" style="stop-color:#820024"/>
			</linearGradient>
			<path class="st8" d="M252.7,271.5c23.4-22.5,35-40.3,40.8-53.1c12.3-22.4,4.1-50.6-18.3-62.9c-22.4-12.3-50.6-4.1-62.9,18.3
				c-3.5,6.3-5.4,13.4-5.7,20.6l0,0c0,0-8.6,28.7,40.4,77.1H252.7z M251.3,214.2c-10,0-18.1-8.1-18.1-18.1c0-10,8.1-18.1,18.1-18.1
				c10,0,18.1,8.1,18.1,18.1c0,0,0,0,0,0C269.4,206.1,261.3,214.2,251.3,214.2z"/>
			<path class="st9" d="M325.3,239.6c-25.1,0-58.1,5.2-74.9,11.7h-0.1c0,0-23.2,7.1-3.3,20.2c37.8-5.9,60.9-10.6,74.9-13.9
				c6.8-1.4,13.6-3.4,20.1-5.9C358.4,245,350.9,239.6,325.3,239.6z M283.1,256.9c-10.8,0-13.9-2.3-7-5.1c6.9-2.8,21.3-5.1,32.1-5.1
				c10.8,0,13.9,2.3,7,5.1C308.2,254.6,293.8,256.9,283.1,256.9z"/>
			
				<linearGradient id="SVGID_4_" gradientUnits="userSpaceOnUse" x1="247.1197" y1="189.0887" x2="247.1197" y2="356.0351" gradientTransform="matrix(1 0 0 -1 0 502)">
				<stop  offset="0" style="stop-color:#D11242"/>
				<stop  offset="0.5" style="stop-color:#ED1849"/>
				<stop  offset="1" style="stop-color:#ED1849"/>
			</linearGradient>
			<path class="st10" d="M247.1,149.8c-24.9,0-45.4,19.8-46.2,44.7l0,0c0,0-6,26.9,46.1,77.1c23.3-22.5,35-40.3,40.8-53.1
				c12.3-22.4,4.2-50.6-18.2-62.9C262.7,151.7,255,149.8,247.1,149.8z M247.1,215.6c-10.8,0-19.5-8.8-19.5-19.6
				c0-10.8,8.8-19.5,19.6-19.5c10.8,0,19.5,8.8,19.5,19.5C266.7,206.9,257.9,215.6,247.1,215.6C247.1,215.6,247.1,215.6,247.1,215.6
				z"/>
		</g>
	</g>
</g>
</svg>
