<svg xmlns="http://www.w3.org/2000/svg" viewBox="0 0 20 18.75">
    <defs>
        <style>
        .cls-0{fill:#0095ff;}
        .cls-1{
        fill:#fffff00;
            animation: appear1 2.5s ease-in-out 0s infinite normal both running;
        }
        .cls-2{
        fill:#fffff00;
            animation: appear1 2.5s ease-in-out 0.8333s infinite normal both running;
        }
        .cls-3{
        fill:#fffff00;
            animation: appear1 2.5s ease-in-out 1.6666s infinite normal both running;
        }
        @keyframes appear1 {
            0% {
                fill: #ffffff00;
            }
            12.5% {
                fill: #ffffffff;
            }
            75%, 100% {
                fill: #ffffff00;
            }
        }
        </style>
    </defs>
    <title>menu-icon</title>

    <path class="cls-0" d="M10,0c5.52,0,10,3.47,10,7.74,0,3.13-2.39,5.82-5.84,7l.94,4L11.49,15.4a14.87,14.87,0,0,1-1.49.08C4.48,15.48,0,12,0,7.74S4.48,0,10,0Z"/>
    <path class="cls-1" d="M4.63,9.38a1,1,0,1,0,1-1,1,1,0,0,0-1,1Z"/>
    <path class="cls-2" d="M9,9.38a1,1,0,1,0,1-1,1,1,0,0,0-1,1Z"/>
    <path class="cls-3" d="M13.38,9.38a1,1,0,0,0,1,1,1,1,0,1,0,0-2,1,1,0,0,0-1,1Z"/>

</svg>